<!--?xml version="1.0" standalone="no"?-->
            <svg id="sw-js-blob-svg" viewBox="0 0 100 100" xmlns="http://www.w3.org/2000/svg" version="1.1">
            <defs>
                <linearGradient id="sw-gradient" x1="0" x2="1" y1="1" y2="0">
                    <stop id="stop1" stop-color="rgba(26, 26, 26, 1)" offset="0%"></stop>
                    <stop id="stop2" stop-color="rgba(180, 146, 94, 1)" offset="100%"></stop>
                </linearGradient>
            </defs>
            <path fill="url(#sw-gradient)" d="M22.9,-32.1C29,-27.2,32.6,-19.5,35.2,-11.4C37.9,-3.3,39.7,5.1,38.4,13.5C37.1,22,32.7,30.5,25.8,34C18.9,37.5,9.4,36,0,35.9C-9.4,35.9,-18.8,37.4,-25.2,33.7C-31.6,30,-34.9,21.2,-37.6,12.4C-40.2,3.5,-42.1,-5.4,-39.1,-12.1C-36.1,-18.9,-28.2,-23.4,-20.9,-27.9C-13.5,-32.4,-6.8,-37,0.8,-38.1C8.5,-39.3,16.9,-37.1,22.9,-32.1Z" width="100%" height="100%" transform="translate(50 50)" stroke-width="0" style="transition: 0.3s;" stroke="url(#sw-gradient)"></path>
        </svg>